<svg xmlns="http://www.w3.org/2000/svg" width="900" height="1200" viewBox="0 0 900 1200" fill="none">
  <rect width="900" height="1200" fill="#000"/>
  <g fill="#0d0d0d">
    <rect x="0" width="112" height="1200"/>
    <rect x="224" width="112" height="1200"/>
    <rect x="448" width="112" height="1200"/>
    <rect x="672" width="112" height="1200"/>
  </g>
  <g fill="#fff">
    <rect x="28" y="940" width="84" height="260"/>
    <rect x="252" y="940" width="84" height="260"/>
    <rect x="476" y="940" width="84" height="260"/>
    <rect x="700" y="940" width="84" height="260"/>
  </g>
  <defs>
    <linearGradient id="fade" x1="450" y1="0" x2="450" y2="900" gradientUnits="userSpaceOnUse">
      <stop stop-color="#fafafa" stop-opacity="0.9"/>
      <stop offset="1" stop-color="#1a1a1a" stop-opacity="0.9"/>
    </linearGradient>
  </defs>
  <circle cx="450" cy="420" r="190" fill="url(#fade)" />
  <path d="M210 630C260 550 350 520 450 520C550 520 640 550 690 630L610 960H290L210 630Z" fill="#eaeaea"/>
  <circle cx="450" cy="420" r="120" fill="#f5f5f5" />
  <rect x="320" y="680" width="260" height="60" rx="28" fill="#0d0d0d"/>
  <text x="450" y="1090" text-anchor="middle" fill="#000" font-family="Helvetica, Arial, sans-serif" font-size="26" letter-spacing="2">Pavel Kuznetsov</text>
  <text x="450" y="1128" text-anchor="middle" fill="#111" font-family="Helvetica, Arial, sans-serif" font-size="18" letter-spacing="4">PIANIST</text>
</svg>
